<?xml version="1.0" standalone="no"?>
<!DOCTYPE svg PUBLIC "-//W3C//DTD SVG 1.1//EN" "http://www.w3.org/Graphics/SVG/1.1/DTD/svg11.dtd" >
<svg xmlns="http://www.w3.org/2000/svg" xmlns:xlink="http://www.w3.org/1999/xlink" version="1.1">
<metadata>
Created by FontForge 20150827 at Thu Oct 08 07:40:29 2015
 By Archerol
</metadata>
<defs>
<font id="v_BadaBoomBB" horiz-adv-x="990" >
  <font-face 
    font-family="v_BadaBoom BB"
    font-weight="400"
    font-stretch="normal"
    units-per-em="2048"
    panose-1="2 11 6 3 5 3 2 2 2 4"
    ascent="1638"
    descent="-410"
    x-height="1462"
    cap-height="1841"
    bbox="-452 -370 2485 2127"
    underline-thickness="0"
    underline-position="0"
    unicode-range="U+0020-201D"
  />
<missing-glyph horiz-adv-x="1024" 
d="M128 0v1808h768v-1808h-768zM256 128h512v1552h-512v-1552z" />
    <glyph glyph-name=".notdef" horiz-adv-x="1024" 
d="M128 0v1808h768v-1808h-768zM256 128h512v1552h-512v-1552z" />
    <glyph glyph-name=".null" horiz-adv-x="0" 
 />
    <glyph glyph-name="nonmarkingreturn" horiz-adv-x="396" 
 />
    <glyph glyph-name="space" unicode=" " horiz-adv-x="396" 
 />
    <glyph glyph-name="exclam" unicode="!" horiz-adv-x="600" 
d="M190 326q70 10 124 -20q64 -32 64 -100q0 -92 -98 -168q-76 -60 -166 -72q-72 -10 -124 16q-62 32 -62 100q0 92 94 170q76 62 168 74zM416 1570l418 -70q-166 -298 -244 -466q-106 -230 -188 -498l-278 12z" />
    <glyph glyph-name="quotedbl" unicode="&#x22;" 
d="M630 1614q-128 -348 -178 -632l-386 -60l194 664zM1142 1614q-128 -348 -178 -632l-386 -60l194 664z" />
    <glyph glyph-name="numbersign" unicode="#" horiz-adv-x="1376" 
d="M394 1412l344 64q-52 -194 -96 -392l190 12l56 316l344 64q-50 -180 -90 -362l262 16l-52 -302q-46 -2 -138 -5t-136 -5q-20 -88 -34 -172l254 16l-34 -302l-270 -12q-10 -66 -18 -130l-16 -132l-318 -88l58 336q-68 -4 -202 -14q-20 -118 -32 -234l-318 -88l52 298
q-50 -6 -96 -10l-98 -8l-20 304l266 16l30 166q-94 -6 -192 -18l-4 304l248 16zM578 788q-10 -58 -34 -172l206 12l32 174q-68 -4 -204 -14z" />
    <glyph glyph-name="dollar" unicode="$" horiz-adv-x="940" 
d="M930 1058q-64 -24 -150 -58l-152 -58q0 94 -52 94q-74 0 -148 -84q-52 -62 -42 -120q6 -38 74 -38q40 0 120 14t120 14q198 0 218 -156q24 -190 -180 -424q0 -100 4 -196l6 -196l-206 -116l-4 334q-58 -40 -110 -58l4 -132q2 -66 6 -132l-206 -116l-2 338q-102 0 -194 50
q50 120 160 354q64 -44 136 -44q34 0 68 10q62 16 116 46q80 44 80 90q0 50 -82 50q-54 0 -161 -23t-163 -23q-178 0 -180 152q-4 182 208 458l-4 482l226 78q-6 -154 -10 -330q44 38 96 76l-2 278l226 80l-6 -258q102 12 160 -84q36 -62 36 -192q0 -70 -10 -160z" />
    <glyph glyph-name="percent" unicode="%" horiz-adv-x="1558" 
d="M1198 1494l304 -98q-258 -308 -472 -578q68 18 128 22q188 12 300 -88q86 -78 86 -190q0 -32 -8 -68q-36 -168 -204 -288q-156 -112 -336 -124q-126 -8 -224 36q-114 54 -148 164q-110 -148 -240 -338l-300 56l500 672q-90 -36 -180 -42q-194 -12 -302 88q-86 78 -86 188
q0 34 8 70q36 168 204 288q156 112 336 124q134 10 238 -46q120 -62 144 -186zM1070 474q-58 -6 -110 -46t-52 -96q0 -44 38 -66q32 -18 76 -14q60 6 110 45t50 95q0 42 -35 64t-77 18zM476 1022q-58 -4 -110 -45t-52 -97q0 -88 116 -80q58 4 108 44t50 96q0 40 -35 63
t-77 19z" />
    <glyph glyph-name="ampersand" unicode="&#x26;" horiz-adv-x="1158" 
d="M992 694q18 -38 28 -88q10 -48 0 -114q-34 -206 -220 -358q-180 -144 -394 -160q-186 -14 -322 80q-150 102 -150 284q0 166 112 312q86 112 208 184q-132 86 -132 228q0 190 180 334q154 122 342 134q118 8 218 -34q112 -48 160 -146l-336 -236q-30 58 -110 50
q-50 -4 -97 -38t-53 -82q-8 -52 28 -80t90 -22q16 2 98 10l208 20q150 12 310 34l24 -300q-32 0 -192 -12zM630 668l-108 -8q-80 -4 -148 -56q-74 -54 -86 -130q-12 -78 44 -120t134 -36q82 6 153 58t81 128q6 40 -16 90t-54 74z" />
    <glyph glyph-name="quotesingle" unicode="'" horiz-adv-x="494" 
d="M648 1614q-128 -348 -178 -632l-386 -60l194 664z" />
    <glyph glyph-name="parenleft" unicode="(" horiz-adv-x="712" 
d="M848 1548q-428 -430 -536 -844q-22 -88 -22 -170q0 -312 324 -566l-152 -144q-74 -72 -150 -146q-358 368 -358 790q0 100 22 206q106 538 586 1134q96 -86 286 -260z" />
    <glyph glyph-name="parenright" unicode=")" horiz-adv-x="780" 
d="M-106 -62q426 426 534 842q22 86 22 170q0 312 -320 568q74 72 150 146l150 144q358 -370 358 -792q0 -102 -20 -204q-106 -540 -588 -1134z" />
    <glyph glyph-name="asterisk" unicode="*" horiz-adv-x="832" 
d="M900 1262q-112 -66 -232 -142l178 -128l-164 -176q-20 14 -120 92q-10 -84 -16 -168l-226 -40l30 218q-28 -20 -85 -58t-85 -58l-114 164l222 140q-82 56 -176 118l138 200l156 -114l28 200l216 2l-18 -100q-8 -50 -14 -98l206 130z" />
    <glyph glyph-name="plus" unicode="+" horiz-adv-x="748" 
d="M712 522q-106 -6 -218 -18q-14 -94 -14 -182l-266 -42l28 190q-78 -12 -164 -30l-16 306l222 26l30 190l286 32q-36 -120 -50 -190l174 20z" />
    <glyph glyph-name="comma" unicode="," horiz-adv-x="512" 
d="M446 338q-174 -346 -262 -618l-378 -8l278 648z" />
    <glyph glyph-name="hyphen" unicode="-" horiz-adv-x="772" 
d="M720 522q-362 -28 -630 -82l-20 306l662 78z" />
    <glyph glyph-name="hyphen" unicode="&#x2010;" horiz-adv-x="772" 
d="M720 522q-362 -28 -630 -82l-20 306l662 78z" />
    <glyph glyph-name="period" unicode="." horiz-adv-x="588" 
d="M306 328q60 0 105 -32t45 -90q0 -92 -95 -167t-207 -75q-60 0 -102 28q-48 34 -48 90q0 92 95 169t207 77z" />
    <glyph glyph-name="slash" unicode="/" horiz-adv-x="1084" 
d="M956 1494l302 -98q-676 -806 -1116 -1452l-300 56z" />
    <glyph glyph-name="zero" unicode="0" 
d="M710 1564q212 0 300 -236q46 -122 46 -268q0 -140 -42 -304q-74 -280 -256 -516q-222 -288 -470 -288q-214 0 -304 236q-44 116 -44 260q0 142 44 308q74 282 254 518q222 290 472 290zM638 1068q-110 0 -224 -180q-92 -142 -128 -278q-18 -72 -18 -130q0 -82 40 -134
q46 -58 128 -58q112 0 202 118q72 94 104 222q38 150 16 296q-24 144 -120 144z" />
    <glyph glyph-name="one" unicode="1" horiz-adv-x="692" 
d="M792 1476q-206 -782 -268 -1390l-336 -88l176 1034l-262 -40l54 380z" />
    <glyph glyph-name="two" unicode="2" horiz-adv-x="964" 
d="M90 922q94 444 352 556q72 32 146 32q150 0 268 -106q152 -134 152 -320q0 -176 -154 -346q-112 -126 -336 -226q-170 -76 -214 -150l520 34l-44 -374l-876 -46q-4 44 -4 86q0 196 80 338q96 174 428 350q182 96 216 190q16 48 16 86q0 40 -23 71t-63 31q-86 0 -92 -140z
" />
    <glyph glyph-name="three" unicode="3" horiz-adv-x="940" 
d="M882 1042q-126 -4 -330 -176q376 -58 374 -294q0 -204 -245 -408t-467 -186q-256 22 -274 376l370 52q-8 -24 -8 -42q0 -34 34 -34q14 0 32 6q86 24 132 84q18 22 18 44q0 90 -194 90q-106 0 -282 -24l68 336q182 120 348 234q-170 -14 -336 -36l24 380l806 46
q-26 -148 -70 -448z" />
    <glyph glyph-name="four" unicode="4" horiz-adv-x="912" 
d="M586 1288l340 60q-100 -400 -146 -634l96 6l-42 -374h-60q-38 -2 -58 -2q-22 -134 -34 -266l-316 -80l56 332q-194 -12 -392 -36l-80 170l270 966l378 56q-166 -430 -282 -800l170 10z" />
    <glyph glyph-name="five" unicode="5" horiz-adv-x="904" 
d="M884 1120q-218 -8 -454 -20q-8 -32 -20 -92q466 -8 484 -280q10 -124 -74 -270q-66 -120 -174 -226q-232 -230 -432 -230q-134 0 -200 140q-36 76 -36 212q0 78 10 172l356 -24q-14 -44 -14 -72q0 -38 30 -38q10 0 22 4q78 24 128 100q24 38 24 74q0 38 -26 76
q-36 50 -192 50q-70 0 -162 -10l-124 -26q50 296 154 784l740 50z" />
    <glyph glyph-name="six" unicode="6" horiz-adv-x="960" 
d="M654 1510q208 0 306 -226l-238 -296q-20 30 -42 60q-28 36 -54 36q-124 0 -258 -252q122 42 230 42q96 0 180 -34q138 -54 138 -198q0 -42 -12 -92q-48 -194 -216 -362q-182 -182 -372 -182q-206 0 -302 220q-56 128 -56 288q0 114 28 244q58 266 226 486
q202 266 442 266zM490 350q106 46 106 110q0 32 -19 60t-49 28q8 0 -138 -34q-60 -14 -116 -34q18 -152 122 -152q40 0 94 22z" />
    <glyph glyph-name="seven" unicode="7" horiz-adv-x="736" 
d="M934 1518l-590 -1486l-326 -34l408 1078l-358 -30l78 378z" />
    <glyph glyph-name="eight" unicode="8" horiz-adv-x="1052" 
d="M838 880q176 -100 176 -300q0 -42 -10 -88q-44 -206 -238 -358q-186 -144 -404 -160q-224 -16 -354 112q-96 94 -96 230q0 174 128 334q90 112 220 184q-122 80 -122 212q0 34 8 72q36 168 204 288q158 112 338 124q188 12 300 -90q88 -78 88 -190q0 -32 -8 -68
q-38 -176 -230 -302zM600 1164q-58 -4 -110 -45t-52 -97q0 -88 114 -80q60 4 111 43t51 97q0 40 -36 63t-78 19zM514 660q-88 -6 -164 -66q-80 -66 -80 -152q0 -66 56 -100q48 -28 116 -24q90 6 164 66q82 66 82 150q0 66 -53 98t-121 28z" />
    <glyph glyph-name="nine" unicode="9" horiz-adv-x="1036" 
d="M480 556q-228 -16 -354 112q-96 96 -96 232q0 44 10 94q44 208 240 358q186 146 404 162q222 16 352 -112q98 -98 98 -234q0 -142 -92 -280q-254 -482 -412 -874l-312 58l240 494q-22 -6 -78 -10zM532 822q72 6 135 56t63 118q0 52 -43 79t-97 23q-72 -6 -132 -54
q-68 -52 -68 -122q0 -54 46 -80q40 -24 96 -20z" />
    <glyph glyph-name="colon" unicode=":" horiz-adv-x="480" 
d="M266 580q60 0 105 -32t45 -90q0 -92 -95 -168t-207 -76q-60 0 -102 30q-48 32 -48 90q0 92 95 169t207 77zM382 1122q60 0 105 -32t45 -90q0 -92 -95 -168t-207 -76q-60 0 -102 30q-48 32 -48 90q0 92 95 169t207 77z" />
    <glyph glyph-name="semicolon" unicode=";" horiz-adv-x="520" 
d="M378 922q60 0 102 -30q48 -36 48 -94q0 -90 -95 -166t-207 -76q-60 0 -102 30q-48 32 -48 90q0 90 95 168t207 78zM408 338q-174 -346 -262 -618l-378 -8l278 648z" />
    <glyph glyph-name="equal" unicode="=" horiz-adv-x="760" 
d="M744 760q-360 -28 -632 -82l-18 304l664 80zM690 322q-320 -20 -632 -80l-18 304l662 80z" />
    <glyph glyph-name="question" unicode="?" horiz-adv-x="868" 
d="M352 326q70 10 129 -21t59 -99q0 -92 -96 -168q-78 -60 -168 -72q-70 -10 -124 16q-64 32 -64 100q0 92 96 170q76 62 168 74zM206 1414q312 94 512 94q272 0 270 -188q-2 -238 -260 -474q-142 -130 -460 -326q6 38 -20 131t-20 133q122 46 234 112q164 98 172 176
q4 54 -102 60t-344 -74z" />
    <glyph glyph-name="at" unicode="@" horiz-adv-x="2050" 
d="M1066 978q92 16 182 0l2 12q44 6 84 6q24 0 72 -5t70 -5q46 0 94 8q-48 -188 -88 -350l-86 -350q254 182 320 338q36 84 36 156q0 190 -232 302q-188 90 -418 90q-374 0 -578 -202q-154 -154 -154 -394q0 -176 104 -408l-402 -210q-78 276 -78 496q0 354 178 602
q156 214 428 326q244 102 532 102q352 0 628 -140q338 -172 338 -450q0 -202 -204 -506q-170 -252 -574 -414l-214 154l28 166q-156 -90 -328 -90q-120 0 -202 58q-96 68 -96 182q0 190 202 358q160 134 356 168zM978 612q-56 -10 -110 -56t-54 -100q0 -70 86 -70
q70 0 134 52q50 38 60 86t-29 72t-87 16z" />
    <glyph glyph-name="A" unicode="A" horiz-adv-x="816" 
d="M-238 -26q294 750 476 1446l608 102q-104 -606 -94 -1434l-424 -98l30 250l-134 -26l-42 -176zM390 508l92 756h-2l-188 -774z" />
    <glyph glyph-name="B" unicode="B" horiz-adv-x="902" 
d="M142 1406q64 10 240 54q152 36 244 46q36 2 70 2q264 0 262 -188q0 -266 -328 -532q206 14 238 -116q6 -28 6 -58q0 -150 -144 -304q-110 -118 -272 -208q-194 -108 -446 -108q-40 0 -80 2q78 410 172 1102q28 196 38 308zM354 574q-16 -76 -34 -206q282 86 282 196
q0 40 -70 40q-62 0 -178 -30zM464 1110q-16 -66 -30 -132l-28 -132q146 90 208 208q14 26 14 42q0 34 -52 34q-40 0 -112 -20z" />
    <glyph glyph-name="C" unicode="C" horiz-adv-x="808" 
d="M650 1510q208 0 306 -226l-226 -248q-46 48 -106 48q-106 0 -220 -182q-94 -150 -122 -280q-14 -62 -14 -112q0 -134 98 -184q32 -16 68 -16q104 0 218 154l64 -238q-198 -220 -402 -220q-208 0 -304 220q-58 128 -58 286q0 116 30 246q60 266 228 486q202 266 440 266z
" />
    <glyph glyph-name="D" unicode="D" horiz-adv-x="856" 
d="M142 1414q230 76 390 76q180 0 274 -94q130 -134 130 -326q0 -70 -18 -148q-78 -352 -368 -615t-646 -309q4 44 42 262l160 920q34 206 36 234zM428 1084q-92 -392 -140 -742q120 114 214 264q116 184 116 316q0 170 -190 162z" />
    <glyph glyph-name="E" unicode="E" horiz-adv-x="738" 
d="M424 1114q-16 -58 -28 -114l-22 -110l320 68l-18 -276q-228 -40 -358 -70q-8 -40 -14 -80l-14 -78l372 54l-26 -372q-288 -24 -730 -138l238 1434l666 96l-26 -370q-196 -18 -360 -44z" />
    <glyph glyph-name="F" unicode="F" horiz-adv-x="740" 
d="M426 1114q-14 -56 -24 -110l-24 -108l350 74l-18 -280q-206 -32 -388 -74q-48 -268 -76 -530l-342 -88l234 1434l684 96l-24 -370q-200 -18 -372 -44z" />
    <glyph glyph-name="G" unicode="G" horiz-adv-x="978" 
d="M284 -48q-212 0 -300 228q-46 114 -46 256q0 134 42 294q70 274 250 502q218 278 464 278q214 0 302 -236l-222 -238q-36 54 -106 54q-136 0 -256 -188q-90 -142 -134 -314q-18 -68 -18 -122q0 -82 42 -132q46 -56 128 -56q94 0 174 86q64 68 104 172q-148 -30 -274 -62
l64 296l530 112q4 -130 -56 -298q-54 -148 -134 -272q-234 -360 -554 -360z" />
    <glyph glyph-name="H" unicode="H" horiz-adv-x="884" 
d="M164 1412l370 64q-100 -382 -162 -696l166 34l102 598l370 64q-212 -818 -268 -1390l-344 -88l92 544q-56 -12 -170 -36q-38 -246 -54 -420l-344 -88z" />
    <glyph glyph-name="I" unicode="I" horiz-adv-x="446" 
d="M204 1412l344 64q-208 -802 -272 -1390l-318 -88z" />
    <glyph glyph-name="J" unicode="J" horiz-adv-x="666" 
d="M426 1412l340 64q-206 -820 -268 -1390l-308 -86q-8 0 -168 34q-64 12 -116 24l-64 14l174 352l232 -38z" />
    <glyph glyph-name="K" unicode="K" horiz-adv-x="880" 
d="M160 1412l344 64q-48 -176 -68 -278q174 152 318 292l252 -164l-394 -350l220 -814l-360 -192l-140 754q-62 -322 -100 -638l-316 -88z" />
    <glyph glyph-name="L" unicode="L" horiz-adv-x="668" 
d="M166 1412l344 64q-144 -554 -222 -1022l352 54l-30 -372q-272 -24 -690 -138z" />
    <glyph glyph-name="M" unicode="M" horiz-adv-x="1286" 
d="M-176 -12q270 684 412 1392l478 78l-68 -734l186 678l460 80q-82 -652 -82 -1176q0 -104 2 -206l-410 -72l72 876l-262 -970l-220 -30l132 1232l-284 -1092z" />
    <glyph glyph-name="N" unicode="N" horiz-adv-x="932" 
d="M184 1406l346 70q-4 -62 -4 -176q0 -272 18 -478q10 -118 30 -190l136 780l344 64q-208 -802 -272 -1390l-316 -88q-2 4 -26 70l-104 296q-26 72 -30 92q-42 -236 -66 -458l-320 -96z" />
    <glyph glyph-name="O" unicode="O" 
d="M710 1564q212 0 300 -236q46 -122 46 -268q0 -140 -42 -304q-74 -280 -256 -516q-222 -288 -470 -288q-214 0 -304 236q-44 116 -44 260q0 142 44 308q74 282 254 518q222 290 472 290zM638 1068q-110 0 -224 -180q-92 -142 -128 -278q-18 -72 -18 -130q0 -82 40 -134
q46 -58 128 -58q112 0 202 118q72 94 104 222q38 150 16 296q-24 144 -120 144z" />
    <glyph glyph-name="P" unicode="P" horiz-adv-x="736" 
d="M154 1414q310 94 508 94q270 0 266 -188q-6 -378 -636 -782q-44 -244 -64 -452l-318 -88q6 44 48 268l88 474q118 654 108 674zM406 1094q-14 -56 -26 -112l-22 -110q186 92 240 194q8 16 8 26q0 34 -50 34q-48 0 -150 -32z" />
    <glyph glyph-name="Q" unicode="Q" horiz-adv-x="1052" 
d="M720 1564q210 0 300 -236q46 -122 46 -266q0 -352 -208 -696q10 -84 76 -344l-288 -182l-44 230q-160 -118 -304 -118q-214 0 -302 236q-46 120 -46 264q0 140 42 304q74 280 256 518q224 290 472 290zM492 638l286 150q6 104 -12 190q-30 128 -110 128q-108 0 -228 -198
q-96 -158 -132 -298q-18 -72 -18 -130q0 -82 40 -134q46 -58 128 -58q52 0 106 32z" />
    <glyph glyph-name="R" unicode="R" horiz-adv-x="816" 
d="M152 1414q314 94 514 94q270 0 268 -188q-2 -270 -340 -542q28 -76 232 -478q-104 -96 -314 -282l-214 552h-2v0q-48 -262 -72 -484l-316 -88q4 44 44 266zM404 1098q-18 -68 -32 -136l-28 -136q70 36 138 94q78 68 104 130q10 18 10 34q0 44 -58 44q-46 0 -134 -30z" />
    <glyph glyph-name="S" unicode="S" horiz-adv-x="890" 
d="M876 1058q-64 -24 -152 -58l-150 -58q0 94 -52 94q-74 0 -148 -84q-52 -62 -44 -120q6 -38 76 -38q38 0 100 12q86 18 152 18q168 0 196 -116q8 -36 8 -76q0 -128 -96 -276q-124 -194 -348 -326q-118 -70 -232 -70q-104 0 -204 58q50 120 160 354q64 -44 136 -44
q32 0 66 10q62 16 118 46q80 44 80 90q0 50 -82 50q-56 0 -163 -23t-163 -23q-74 0 -114 28q-78 52 -64 162q26 222 286 514q266 300 458 314q186 12 186 -280q0 -70 -10 -158z" />
    <glyph glyph-name="T" unicode="T" horiz-adv-x="730" 
d="M900 1496l-12 -372q-140 -8 -266 -20q-132 -554 -178 -1018l-338 -88l184 1064q-54 -8 -108 -18l-106 -20l-24 374z" />
    <glyph glyph-name="U" unicode="U" horiz-adv-x="870" 
d="M176 1412l342 64q-138 -524 -204 -940l190 80l140 796l342 64q-208 -820 -270 -1390l-320 -88l40 222q-168 -74 -508 -222z" />
    <glyph glyph-name="V" unicode="V" horiz-adv-x="796" 
d="M992 1476q-238 -652 -426 -1398l-532 -96q50 284 62 692l12 696l400 90l-172 -1276h2l292 1226z" />
    <glyph glyph-name="W" unicode="W" horiz-adv-x="1180" 
d="M1372 1488q-270 -716 -402 -1396l-448 -76l74 734l-186 -680l-426 -78q96 752 94 1380l380 72l-78 -876l260 972l204 30l-138 -1234l278 1092z" />
    <glyph glyph-name="X" unicode="X" horiz-adv-x="810" 
d="M732 140l-318 -198l-36 194q-18 98 -36 198l-96 -174q-48 -88 -94 -172l-348 30l452 714q-78 326 -162 582l282 212l110 -430l260 408l260 -92q-212 -304 -428 -670z" />
    <glyph glyph-name="Y" unicode="Y" horiz-adv-x="774" 
d="M678 1442l322 -56q-432 -758 -684 -1372l-308 20l212 446l-168 804l390 180q-6 -92 -8 -230t14 -276z" />
    <glyph glyph-name="Z" unicode="Z" horiz-adv-x="974" 
d="M1020 1088q-84 -84 -332 -360q-84 -90 -166 -180q-108 -118 -152 -184l472 32l-42 -374q-518 -14 -864 -62l2 370q84 98 334 366l346 370q-172 -14 -370 -46l14 378l810 64q-18 -124 -52 -374z" />
    <glyph glyph-name="backslash" unicode="\" horiz-adv-x="1008" 
d="M428 1494l480 -1494l-324 -56q-168 638 -500 1452z" />
    <glyph glyph-name="underscore" unicode="_" horiz-adv-x="772" 
d="M720 82q-362 -28 -630 -82l-20 306l662 78z" />
    <glyph glyph-name="a" unicode="a" horiz-adv-x="816" 
d="M-238 -26q294 750 476 1446l608 102q-104 -606 -94 -1434l-424 -98l30 250l-134 -26l-42 -176zM390 508l92 756h-2l-188 -774z" />
    <glyph glyph-name="b" unicode="b" horiz-adv-x="902" 
d="M142 1406q64 10 240 54q152 36 244 46q36 2 70 2q264 0 262 -188q0 -266 -328 -532q206 14 238 -116q6 -28 6 -58q0 -150 -144 -304q-110 -118 -272 -208q-194 -108 -446 -108q-40 0 -80 2q78 410 172 1102q28 196 38 308zM354 574q-16 -76 -34 -206q282 86 282 196
q0 40 -70 40q-62 0 -178 -30zM464 1110q-16 -66 -30 -132l-28 -132q146 90 208 208q14 26 14 42q0 34 -52 34q-40 0 -112 -20z" />
    <glyph glyph-name="c" unicode="c" horiz-adv-x="808" 
d="M650 1510q208 0 306 -226l-226 -248q-46 48 -106 48q-106 0 -220 -182q-94 -150 -122 -280q-14 -62 -14 -112q0 -134 98 -184q32 -16 68 -16q104 0 218 154l64 -238q-198 -220 -402 -220q-208 0 -304 220q-58 128 -58 286q0 116 30 246q60 266 228 486q202 266 440 266z
" />
    <glyph glyph-name="d" unicode="d" horiz-adv-x="856" 
d="M142 1414q230 76 390 76q180 0 274 -94q130 -134 130 -326q0 -70 -18 -148q-78 -352 -368 -615t-646 -309q4 44 42 262l160 920q34 206 36 234zM428 1084q-92 -392 -140 -742q120 114 214 264q116 184 116 316q0 170 -190 162z" />
    <glyph glyph-name="e" unicode="e" horiz-adv-x="738" 
d="M424 1114q-16 -58 -28 -114l-22 -110l320 68l-18 -276q-228 -40 -358 -70q-8 -40 -14 -80l-14 -78l372 54l-26 -372q-288 -24 -730 -138l238 1434l666 96l-26 -370q-196 -18 -360 -44z" />
    <glyph glyph-name="f" unicode="f" horiz-adv-x="740" 
d="M426 1114q-14 -56 -24 -110l-24 -108l350 74l-18 -280q-206 -32 -388 -74q-48 -268 -76 -530l-342 -88l234 1434l684 96l-24 -370q-200 -18 -372 -44z" />
    <glyph glyph-name="g" unicode="g" horiz-adv-x="978" 
d="M284 -48q-212 0 -300 228q-46 114 -46 256q0 134 42 294q70 274 250 502q218 278 464 278q214 0 302 -236l-222 -238q-36 54 -106 54q-136 0 -256 -188q-90 -142 -134 -314q-18 -68 -18 -122q0 -82 42 -132q46 -56 128 -56q94 0 174 86q64 68 104 172q-148 -30 -274 -62
l64 296l530 112q4 -130 -56 -298q-54 -148 -134 -272q-234 -360 -554 -360z" />
    <glyph glyph-name="h" unicode="h" horiz-adv-x="884" 
d="M164 1412l370 64q-100 -382 -162 -696l166 34l102 598l370 64q-212 -818 -268 -1390l-344 -88l92 544q-56 -12 -170 -36q-38 -246 -54 -420l-344 -88z" />
    <glyph glyph-name="i" unicode="i" horiz-adv-x="446" 
d="M204 1412l344 64q-208 -802 -272 -1390l-318 -88z" />
    <glyph glyph-name="j" unicode="j" horiz-adv-x="666" 
d="M426 1412l340 64q-206 -820 -268 -1390l-308 -86q-8 0 -168 34q-64 12 -116 24l-64 14l174 352l232 -38z" />
    <glyph glyph-name="k" unicode="k" horiz-adv-x="880" 
d="M160 1412l344 64q-46 -176 -68 -278q174 152 318 292l252 -164l-394 -350l222 -814l-362 -192l-140 754q-62 -322 -98 -638l-318 -88z" />
    <glyph glyph-name="l" unicode="l" horiz-adv-x="668" 
d="M166 1412l344 64q-144 -554 -222 -1022l352 54l-30 -372q-272 -24 -690 -138z" />
    <glyph glyph-name="m" unicode="m" horiz-adv-x="1286" 
d="M-176 -12q270 684 412 1392l478 78l-68 -734l186 678l460 80q-82 -652 -82 -1176q0 -104 2 -206l-410 -72l72 876l-262 -970l-220 -30l132 1232l-284 -1092z" />
    <glyph glyph-name="n" unicode="n" horiz-adv-x="932" 
d="M184 1406l346 70q-4 -62 -4 -176q0 -272 18 -478q10 -118 30 -190l136 780l344 64q-208 -802 -272 -1390l-316 -88q-2 4 -26 70l-104 296q-26 72 -30 92q-42 -236 -66 -458l-320 -96z" />
    <glyph glyph-name="o" unicode="o" 
d="M710 1564q212 0 300 -236q46 -122 46 -268q0 -140 -42 -304q-74 -280 -256 -516q-222 -288 -470 -288q-214 0 -304 236q-44 116 -44 260q0 142 44 308q74 282 254 518q222 290 472 290zM638 1068q-110 0 -224 -180q-92 -142 -128 -278q-18 -72 -18 -130q0 -82 40 -134
q46 -58 128 -58q112 0 202 118q72 94 104 222q38 150 16 296q-24 144 -120 144z" />
    <glyph glyph-name="p" unicode="p" horiz-adv-x="736" 
d="M154 1414q310 94 508 94q270 0 266 -188q-6 -378 -636 -782q-44 -244 -64 -452l-318 -88q6 44 48 268l88 474q118 654 108 674zM406 1094q-14 -56 -26 -112l-22 -110q186 92 240 194q8 16 8 26q0 34 -50 34q-48 0 -150 -32z" />
    <glyph glyph-name="q" unicode="q" horiz-adv-x="1052" 
d="M720 1564q210 0 300 -236q46 -122 46 -266q0 -352 -208 -696q10 -84 76 -344l-288 -182l-44 230q-160 -118 -304 -118q-214 0 -302 236q-46 120 -46 264q0 140 42 304q74 280 256 518q224 290 472 290zM492 638l286 150q6 104 -12 190q-30 128 -110 128q-108 0 -228 -198
q-96 -158 -132 -298q-18 -72 -18 -130q0 -82 40 -134q46 -58 128 -58q52 0 106 32z" />
    <glyph glyph-name="r" unicode="r" horiz-adv-x="816" 
d="M152 1414q314 94 514 94q270 0 268 -188q-2 -270 -340 -542q28 -76 232 -478q-104 -96 -314 -282l-214 552h-2v0q-48 -262 -72 -484l-316 -88q4 44 44 266zM404 1098q-18 -68 -32 -136l-28 -136q70 36 138 94q78 68 104 130q10 18 10 34q0 44 -58 44q-46 0 -134 -30z" />
    <glyph glyph-name="s" unicode="s" horiz-adv-x="890" 
d="M876 1058q-64 -24 -152 -58l-150 -58q0 94 -52 94q-74 0 -148 -84q-52 -62 -44 -120q6 -38 76 -38q38 0 100 12q86 18 152 18q168 0 196 -116q8 -36 8 -76q0 -128 -96 -276q-124 -194 -348 -326q-118 -70 -232 -70q-104 0 -204 58q50 120 160 354q64 -44 136 -44
q32 0 66 10q62 16 118 46q80 44 80 90q0 50 -82 50q-56 0 -163 -23t-163 -23q-74 0 -114 28q-78 52 -64 162q26 222 286 514q266 300 458 314q186 12 186 -280q0 -70 -10 -158z" />
    <glyph glyph-name="t" unicode="t" horiz-adv-x="730" 
d="M900 1496l-12 -372q-140 -8 -266 -20q-132 -554 -178 -1018l-338 -88l184 1064q-54 -8 -108 -18l-106 -20l-24 374z" />
    <glyph glyph-name="u" unicode="u" horiz-adv-x="870" 
d="M176 1412l342 64q-138 -524 -204 -940l190 80l140 796l342 64q-208 -820 -270 -1390l-320 -88l40 222q-168 -74 -508 -222z" />
    <glyph glyph-name="v" unicode="v" horiz-adv-x="796" 
d="M992 1476q-238 -652 -426 -1398l-532 -96q50 284 62 692l12 696l400 90l-172 -1276h2l292 1226z" />
    <glyph glyph-name="w" unicode="w" horiz-adv-x="1180" 
d="M1372 1488q-270 -716 -402 -1396l-448 -76l74 734l-186 -680l-426 -78q96 752 94 1380l380 72l-78 -876l260 972l204 30l-138 -1234l278 1092z" />
    <glyph glyph-name="x" unicode="x" horiz-adv-x="810" 
d="M732 140l-318 -198l-36 194q-18 98 -36 198l-96 -174q-48 -88 -94 -172l-348 30l452 714q-78 326 -162 582l282 212l110 -430l260 408l260 -92q-212 -304 -428 -670z" />
    <glyph glyph-name="y" unicode="y" horiz-adv-x="774" 
d="M678 1442l322 -56q-432 -758 -684 -1372l-308 20l212 446l-168 804l390 180q-6 -92 -8 -230t14 -276z" />
    <glyph glyph-name="z" unicode="z" horiz-adv-x="974" 
d="M1020 1088q-84 -84 -332 -360q-84 -90 -166 -180q-108 -118 -152 -184l472 32l-42 -374q-518 -14 -864 -62l2 370q84 98 334 366l346 370q-172 -14 -370 -46l14 378l810 64q-18 -124 -52 -374z" />
    <glyph glyph-name="afii10023" unicode="&#x401;" horiz-adv-x="1055" 
d="M604.5 1046q-19 -56 -34 -110l-26 -107l387 66l-22 -267q-276 -39 -433 -68q-10 -39 -17 -77l-17 -76l450 52l-31 -360q-349 -23 -883 -133l288 1388l805 93l-31 -358q-237 -18 -436 -43zM493.5 1677q51 0 89.5 -22t38.5 -63q0 -66 -81 -119t-178 -53q-53 0 -89 21
q-41 23 -41 64q0 64 82 118t179 54zM946.5 1716q53 0 91.5 -22.5t38.5 -60.5q0 -64 -83.5 -116.5t-180.5 -52.5q-53 0 -92 21q-41 22 -41 62q0 62 83.5 115.5t183.5 53.5z" />
    <glyph glyph-name="afii10053" unicode="&#x404;" horiz-adv-x="808" 
d="M272 566q-4 -30 -4 -56q0 -134 98 -184q32 -16 68 -16q104 0 218 154l64 -238q-198 -220 -402 -220q-208 0 -304 220q-58 128 -58 286q0 116 30 246q60 266 228 486q202 266 440 266q208 0 306 -226l-226 -248q-46 48 -106 48q-106 0 -220 -182q-8 -12 -16 -26l232 26
l-12 -302q-180 -14 -336 -34z" />
    <glyph glyph-name="afii10055" unicode="&#x406;" horiz-adv-x="446" 
d="M204 1412l344 64q-208 -802 -272 -1390l-318 -88z" />
    <glyph glyph-name="afii10056" unicode="&#x407;" horiz-adv-x="446" 
d="M204 1412l344 64q-208 -802 -272 -1390l-318 -88zM292 1766q42 0 74 -23t32 -65q0 -68 -67 -123t-147 -55q-44 0 -74 22q-34 24 -34 66q0 66 68 122t148 56zM666 1806q44 0 76 -23t32 -63q0 -66 -69 -120t-149 -54q-44 0 -76 22q-34 22 -34 64q0 64 69 119t151 55z" />
    <glyph glyph-name="afii10058" unicode="&#x409;" horiz-adv-x="1286" 
d="M-176 -12q270 684 412 1392l478 78l-56 -634l174 578l460 80q-82 -652 -82 -1176q0 -104 2 -206l-410 -72l68 814l-198 -528l-220 -30l8 560l-220 -800z" />
    <glyph glyph-name="afii10059" unicode="&#x40a;" horiz-adv-x="1286" 
d="M-176 -12q270 684 412 1392l360 60l62 -584l268 566l366 60q-82 -652 -82 -1176q0 -104 2 -206l-410 -72l56 736l-302 -472l-114 470l-202 -718z" />
    <glyph glyph-name="afii10062" unicode="&#x40e;" horiz-adv-x="774" 
d="M678 1442l322 -56q-432 -758 -684 -1372l-308 20l212 446l-168 804l390 180q-6 -92 -8 -230t14 -276zM334 1740q286 22 498 64l16 -242l-524 -62z" />
    <glyph glyph-name="afii10145" unicode="&#x40f;" horiz-adv-x="932" 
d="M582 754l128 658l344 64q-172 -778 -258 -1092q-96 -284 -202 -365t-244 -69q-100 8 -166 78t-85 159t-5 227l252 -92q-8 -48 15 -63t50 -9t51 37t44 80t32 125q-78 -48 -175 -28t-159 94t-72 234q-16 116 52 614l338 70q-20 -84 -46 -216q-48 -286 -55 -388t50 -133
t111 15z" />
    <glyph glyph-name="afii10017" unicode="&#x410;" horiz-adv-x="1625" 
d="M8 -43q437 902 706 1739l903 123q-154 -729 -140 -1725l-629 -117l44 300l-199 -31l-61 -212zM941 599l136 910h-3l-280 -931z" />
    <glyph glyph-name="afii10018" unicode="&#x411;" horiz-adv-x="1460" 
d="M657 674q-24 -92 -50 -248q419 104 419 236q0 49 -105 49q-91 -1 -264 -37zM179 703q92 375 208 1027l1016 116l-36 -446q-297 -21 -573 -57q-65 -281 -107 -474q122 48 381 62q306 17 353 -139q9 -34 9 -70q0 -180 -214 -365q-163 -142 -405 -251q-288 -130 -662 -130
q-59 0 -119 3q16 65 30 137z" />
    <glyph glyph-name="afii10019" unicode="&#x412;" horiz-adv-x="1487" 
d="M293.979 1679q95 12 357 65q225 43 361 55q54 3 105 3q392 0 388 -227q0 -320 -487 -639q306 16 354 -140q9 -34 9 -70q0 -180 -215 -365q-162 -142 -403 -251q-288 -130 -662 -130q-60 0 -119 3q115 494 255 1325q42 236 57 371zM608.979 678q-24 -92 -51 -248
q419 104 419 236q0 49 -104 49q-92 -1 -264 -37zM771.979 1323q-25 -79 -44 -159l-42 -159q216 109 309 250q21 32 21 51q0 41 -77 41q-61 0 -167 -24z" />
    <glyph glyph-name="afii10020" unicode="&#x413;" horiz-adv-x="1328" 
d="M758 1325q-21 -67 -36 -132q-190 -790 -232 -1104l-508 -106l348 1725l1016 115l-36 -445q-297 -21 -552 -53z" />
    <glyph glyph-name="afii10021" unicode="&#x414;" horiz-adv-x="1752" 
d="M964 465l169 1138h-3l-348 -1148zM1569 -88l-477 -41l56 257l-603 -38l38 -236l-440 29l-118 541l228 17q247 512 517 1350l904 123q-154 -729 -146 -1435l199 3q-134 -406 -158 -570z" />
    <glyph glyph-name="afii10022" unicode="&#x415;" horiz-adv-x="1358" 
d="M777 1325q-24 -69 -42 -137l-32 -133l475 82l-27 -331q-339 -48 -531 -85q-12 -48 -21 -96l-21 -94l552 65l-38 -447q-428 -28 -1084 -166l353 1725l989 115l-38 -445q-292 -21 -535 -53z" />
    <glyph glyph-name="afii10024" unicode="&#x416;" horiz-adv-x="2424" 
d="M1169 1406l59 285l512 76q-72 -212 -101 -334q258 183 472 351l374 -197l-585 -421l326 -979l-534 -231l-208 907q-93 -388 -149 -767l-468 -106l171 812l-564 -822l-535 231l809 1023l-253 353l374 197q155 -190 300 -378z" />
    <glyph glyph-name="afii10025" unicode="&#x417;" horiz-adv-x="1455" 
d="M665.988 505q280 75 285 171q0 48 -89 48q-124 4 -246 -20l-107 287l166 60q217 109 309 202q21 31 21 51q0 41 -77 41q-122 7 -541 -130q-119 327 -154 411q271 104 471 137.5t402 35.5q392 0 389 -226q0 -320 -457 -616q276 -7 324 -164q8 -33 8 -69q0 -180 -183 -365
q-163 -142 -393 -261q-273 -131 -509 -75t-325 391q222 84 514 178q49 -123 192 -87z" />
    <glyph glyph-name="afii10026" unicode="&#x418;" horiz-adv-x="1539" 
d="M321 1689l549 77q-148 -460 -240 -837l397 760l550 77q-314 -983 -398 -1672l-510 -106l136 655l-332 -549l-511 -106z" />
    <glyph glyph-name="afii10027" unicode="&#x419;" horiz-adv-x="1663" 
d="M383 1656l549 76q-148 -459 -240 -836l397 760l550 76q-314 -983 -398 -1671l-510 -106l136 654l-332 -548l-511 -106zM695 2051q424 26 740 76l23 -291l-778 -74z" />
    <glyph glyph-name="afii10028" unicode="&#x41a;" horiz-adv-x="1555" 
d="M330 1691l512 76q-72 -212 -101 -334q258 183 472 351l374 -197l-586 -421l327 -979l-535 -231l-207 907q-93 -388 -149 -767l-469 -106z" />
    <glyph glyph-name="afii10029" unicode="&#x41b;" horiz-adv-x="1555" 
d="M593 32l-620 -75q437 902 706 1739l903 123q-154 -729 -140 -1725l-599 -117l199 1532h-3z" />
    <glyph glyph-name="afii10030" unicode="&#x41c;" horiz-adv-x="2060" 
d="M-60 -15q400 822 612 1674l710 94l-101 -883l276 816l683 96q-122 -784 -122 -1414q0 -125 3 -249l-609 -86l108 1054l-390 -1167l-326 -36l195 1482l-421 -1314z" />
    <glyph glyph-name="afii10031" unicode="&#x41d;" horiz-adv-x="1555" 
d="M329 1689l549 77q-148 -460 -240 -837l247 41l150 719l550 77q-314 -983 -398 -1672l-510 -106l136 655q-83 -15 -253 -44q-55 -296 -79 -505l-511 -106z" />
    <glyph glyph-name="afii10032" unicode="&#x41e;" horiz-adv-x="1611" 
d="M1121 1867q314 0 445 -283q68 -147 68 -322q0 -169 -62 -367q-110 -336 -380 -620q-330 -346 -698 -346q-318 0 -451 283q-65 141 -66 314q0 171 66 369q110 340 377 624q329 348 701 348zM1014 1270q-163 0 -333 -215q-137 -171 -190 -335q-26 -87 -27 -156
q0 -99 59 -161q69 -70 191 -70q166 0 300 142q107 113 154 266q56 180 24 357q-35 172 -178 172z" />
    <glyph glyph-name="afii10033" unicode="&#x41f;" horiz-adv-x="1522" 
d="M298.5 1682l1284 159q-341 -1065 -425 -1754l-511 -106l375 1490q-81 -13 -250 -41q-297 -1134 -321 -1343l-511 -106z" />
    <glyph glyph-name="afii10034" unicode="&#x420;" horiz-adv-x="1441" 
d="M326.469 1688q460 113 755 113q400 0 395 -226q-9 -455 -945 -940q-65 -294 -95 -544l-472 -106q9 53 71 323l131 569q176 787 160 811zM700.469 1303q-21 -68 -38 -135l-33 -132q276 111 356 234q12 19 12 31q0 41 -74 41q-71 -1 -223 -39z" />
    <glyph glyph-name="afii10035" unicode="&#x421;" horiz-adv-x="1425" 
d="M1003 1802q310 0 455 -271l-336 -299q-68 58 -157 58q-157 0 -327 -219q-139 -180 -180 -337q-21 -75 -21 -134q0 -162 145 -221q47 -20 101 -20q154 0 324 185l94 -286q-293 -264 -596 -264q-309 0 -452 264q-86 154 -86 344q0 140 45 296q89 320 338 584
q300 320 653 320z" />
    <glyph glyph-name="afii10036" unicode="&#x422;" horiz-adv-x="1255" 
d="M1257 1788l-17 -447q-208 -10 -395 -25q-196 -666 -264 -1224l-503 -106l274 1280q-80 -10 -161 -22l-157 -24l-36 450z" />
    <glyph glyph-name="afii10037" unicode="&#x423;" horiz-adv-x="1485" 
d="M787.38 938q54 172 163 782l543 86q-249 -972 -403 -1334q-128 -306 -327 -432.5t-395 -107.5q-149 10 -251 90.5t-118.5 224t4.5 195.5l386 -19q-16 -76 19 -99.5t82 -14t108 83t103 220.5q-152 -41 -304.5 -12t-235.5 114t-99 238q-35 130 65 728l532 87
q-29 -101 -74 -260q-104 -398 -65.5 -518t267.5 -52z" />
    <glyph glyph-name="afii10038" unicode="&#x424;" horiz-adv-x="1968" 
d="M1232.14 1312q-42 -253 -60 -313l-30 -123q205 77 281 141t100 115q77 205 -104 194q-65 6 -187 -14zM685.136 814l3 20q9 72 21 115q24 153 39 199l24 104q-247 -65 -309 -161q-18 -27 -37 -62q-77 -207 72 -232q74 -7 187 17zM872.136 1700l12 65l445 82l-17 -81
q122 17 300 0q401 -28 404 -341q-21 -580 -954 -890q-65 -180 -94 -428l-472 -114q8 52 70 362l36 136q-110 -13 -258 8q-339 70 -390 335q-48 625 918 866z" />
    <glyph glyph-name="afii10039" unicode="&#x425;" horiz-adv-x="1698" 
d="M1334 159l-472 -237l-53 233q-26 118 -53 238l-144 -210q-71 -106 -139 -206l-516 35l671 859q-116 392 -241 701l419 254l163 -516l386 491l386 -112q-315 -365 -635 -805z" />
    <glyph glyph-name="afii10040" unicode="&#x426;" horiz-adv-x="1495" 
d="M323 1701l508 77q-205 -630 -357 -1359l274 43l270 1239l508 77q-309 -986 -350 -1275l255 33l-181 -584l-484 -96l68 255q-407 -65 -865 -154z" />
    <glyph glyph-name="afii10041" unicode="&#x427;" horiz-adv-x="1412" 
d="M103 1682l514 84q-27 -75 -59 -212q-125 -409 -125 -525q24 -171 279 -100l172 760l540 77q-309 -965 -403 -1672l-499 -106q56 324 128 628q-645 -120 -662 347q0 100 26 267z" />
    <glyph glyph-name="afii10042" unicode="&#x428;" horiz-adv-x="2222" 
d="M-63 -15l360 1701l550 77q-149 -459 -339 -1361l247 31l249 1253l549 77q-261 -815 -337 -1313l230 36l289 1234l550 77q-333 -984 -414 -1648z" />
    <glyph glyph-name="afii10043" unicode="&#x429;" horiz-adv-x="2200" 
d="M-72 -4l360 1700l549 77q-148 -460 -335 -1354l246 24l246 1253l550 77q-261 -815 -335 -1303l237 25l277 1234l549 78q-247 -724 -354 -1273l289 29l-247 -648l-517 -38l101 248z" />
    <glyph glyph-name="afii10044" unicode="&#x42a;" horiz-adv-x="1363" 
d="M606 678q-24 -92 -50 -248q419 104 419 236q0 48 -105 48q-91 0 -264 -36zM134 707q84 375 128 642l-220 -38l-3 389q380 34 840 103q-202 -738 -234 -907q122 49 380 64q306 17 350 -140q9 -58 9 -94q-7 -180 -220 -366q-163 -142 -404 -250q-288 -130 -662 -129
q-59 0 -119 1q16 65 30 138z" />
    <glyph glyph-name="afii10045" unicode="&#x42b;" horiz-adv-x="2008" 
d="M564.5 677q-24 -91 -51 -247q420 104 418 236q0 48 -103 48q-91 0 -264 -37zM91.5 706q84 375 202 1027l568 75q-225 -743 -258 -911q122 48 379 62q306 17 339 -149q15 -34 6 -94q-20 -180 -205 -356q-163 -141 -404 -250q-288 -130 -662 -130q-60 0 -119 3
q15 65 30 137zM1558.5 1685l512 78q-309 -965 -405 -1673l-472 -106z" />
    <glyph glyph-name="afii10046" unicode="&#x42c;" horiz-adv-x="1325" 
d="M589.25 677q-24 -91 -50 -247q419 104 419 236q0 48 -105 48q-91 0 -264 -37zM111.25 706q92 375 208 1027l567 75q-216 -719 -258 -911q122 48 380 62q306 17 350 -140q6 -58 4 -93q0 -180 -214 -366q-163 -141 -404 -250q-288 -130 -663 -130q-59 0 -119 3
q16 65 30 137z" />
    <glyph glyph-name="afii10047" unicode="&#x42d;" horiz-adv-x="1520" 
d="M647.729 474q160 48 282 185l39 63q-213 -17 -381 -22l-32 332l490 36q15 70 12 114.5t-36 104.5q-48 60 -169 65q-204 -3 -356 -118q-148 159 -307 341q187 147 420.5 207t482.5 27q271 -46 381 -254t46 -553t-350 -647q-175 -165 -383 -266q-281 -125 -533.5 -56.5
t-276.5 438.5l513 85q-8 -120 158 -82z" />
    <glyph glyph-name="afii10048" unicode="&#x42e;" horiz-adv-x="2165" 
d="M1645 1270q-163 0 -332 -215q-136 -171 -190 -335q-27 -87 -27 -156q0 -99 60 -161q68 -70 189 -70q166 0 300 142q107 113 155 266q56 180 23 357q-35 172 -178 172zM612 616q-54 -9 -122 -21q-56 -296 -80 -505l-511 -106l359 1701l550 76q-148 -459 -241 -836l124 21
q114 310 360 573q330 349 701 348q314 0 445 -283q69 -147 69 -322q0 -169 -62 -367q-110 -336 -381 -620q-330 -346 -697 -346q-318 0 -452 283q-65 141 -65 314q0 42 3 90z" />
    <glyph glyph-name="afii10049" unicode="&#x42f;" horiz-adv-x="1614" 
d="M776.5 1299q-83 -67 -88.5 -133t71.5 -121q80 -51 225 -51l93 363q-158 22 -301 -58zM919.5 621l-342 -440q-89 -108 -159 -206l-505 35l596 732q-351 99 -327 406q51 436 692 609q362 55 547 36l279 -14q-318 -994 -401 -1682l-511 -106z" />
    <glyph glyph-name="afii10065" unicode="&#x430;" horiz-adv-x="1195" 
d="M-19 -36q334 683 542 1317l691 91q-117 -552 -106 -1305l-482 -88l34 228l-155 -25l-46 -161zM694 449l107 690h-4l-213 -705z" />
    <glyph glyph-name="afii10066" unicode="&#x431;" horiz-adv-x="1072" 
d="M479 510q-19 -67 -38 -184q323 77 323 176q0 36 -80 36q-72 0 -205 -28zM115 534q68 281 159 777l778 89l-26 -338q-228 -18 -441 -44q-49 -213 -83 -358q95 36 292 48q235 12 273 -107q4 -28 4 -55q0 -135 -163 -275q-125 -105 -311 -188q-220 -101 -505 -101
q-46 0 -91 4q11 48 23 103z" />
    <glyph glyph-name="afii10067" unicode="&#x432;" horiz-adv-x="1092" 
d="M201 1267q72 8 273 49q174 32 277 42q42 4 80 4q299 0 299 -174q0 -243 -375 -482q235 13 273 -107q8 -28 8 -55q0 -135 -167 -275q-126 -105 -308 -188q-220 -101 -508 -101q-46 0 -91 4q87 372 197 1004q30 176 42 279zM444 508q-19 -67 -42 -184q322 77 322 176
q0 36 -79 36q-72 0 -201 -28zM569 998q-19 -61 -34 -120l-35 -121q167 81 240 188q15 25 15 41q0 30 -61 30q-46 0 -125 -18z" />
    <glyph glyph-name="afii10068" unicode="&#x433;" horiz-adv-x="976" 
d="M558 1004q-15 -53 -26 -101q-145 -599 -179 -838l-387 -79l266 1305l778 89l-27 -338q-227 -14 -425 -38z" />
    <glyph glyph-name="afii10069" unicode="&#x434;" horiz-adv-x="1288" 
d="M710 348l129 859v0l-265 -868zM1177 -71l-368 -33l42 197l-459 -30l26 -179l-334 21l-91 410l175 15q189 386 394 1020l695 94q-122 -552 -114 -1087l152 3q-103 -309 -118 -431z" />
    <glyph glyph-name="afii10070" unicode="&#x435;" horiz-adv-x="996" 
d="M572 1004q-15 -55 -30 -103l-27 -102l364 61l-19 -251q-258 -36 -409 -65q-8 -36 -16 -73l-15 -68l425 48l-30 -340q-326 -22 -831 -125l269 1305l759 89l-30 -338q-220 -14 -410 -38z" />
    <glyph glyph-name="afii10072" unicode="&#x436;" horiz-adv-x="1781" 
d="M856 1057l46 215l395 58q-57 -161 -80 -255q197 140 360 267l289 -149l-448 -318l250 -741l-409 -176l-160 686q-72 -292 -114 -580l-360 -82l133 616l-433 -622l-410 176l619 774l-194 267l289 149q117 -142 227 -285z" />
    <glyph glyph-name="afii10073" unicode="&#x437;" horiz-adv-x="1069" 
d="M487 381q216 58 220 131q0 36 -68 36q-95 3 -190 -15l-83 216l129 45q167 82 235 155q19 21 19 37q0 30 -61 30q-95 6 -413 -97q-92 249 -118 313q205 75 358.5 101t309.5 29q300 0 300 -173q0 -240 -353 -465q212 -6 250 -124q4 -24 4 -52q0 -136 -140 -279
q-126 -106 -300 -194q-209 -100 -391 -57.5t-251 294.5q171 63 395 136q38 -94 148 -67z" />
    <glyph glyph-name="afii10074" unicode="&#x438;" horiz-adv-x="1131" 
d="M220 1271l421 59q-113 -346 -182 -636l304 577l421 59q-239 -745 -304 -1267l-390 -79l102 496l-254 -417l-391 -79z" />
    <glyph glyph-name="afii10075" unicode="&#x439;" horiz-adv-x="1222" 
d="M268 1234l421 56q-114 -348 -186 -633l307 577l421 56q-242 -743 -307 -1265l-391 -79l106 494l-258 -415l-390 -79zM507 1531q326 20 565 57l19 -219l-596 -57z" />
    <glyph glyph-name="afii10076" unicode="&#x43a;" horiz-adv-x="1142" 
d="M228 1272l390 58q-53 -161 -75 -255q197 140 360 267l288 -149l-447 -318l250 -741l-410 -176l-159 686q-72 -292 -114 -580l-360 -82z" />
    <glyph glyph-name="afii10077" unicode="&#x43b;" horiz-adv-x="1142" 
d="M429 18l-475 -54q334 683 543 1317l691 91q-118 -552 -107 -1305l-459 -88l152 1160h-4z" />
    <glyph glyph-name="afii10078" unicode="&#x43c;" horiz-adv-x="1513" 
d="M-80 0q307 622 470 1269l543 71l-76 -668l213 616l523 73q-95 -591 -95 -1071q0 -95 4 -186l-467 -67l80 799l-296 -884l-250 -27l148 1120l-323 -992z" />
    <glyph glyph-name="afii10079" unicode="&#x43d;" horiz-adv-x="1142" 
d="M228 1271l421 59q-114 -346 -186 -636l190 35l117 542l421 59q-242 -745 -307 -1267l-391 -79l106 496q-64 -12 -193 -35q-46 -224 -65 -382l-390 -79z" />
    <glyph glyph-name="afii10080" unicode="&#x43e;" horiz-adv-x="1185" 
d="M835 1413q239 0 342 -216q49 -112 49 -243q0 -127 -45 -279q-84 -255 -292 -468q-255 -264 -536 -264q-242 0 -345 216q-49 106 -49 237q0 130 49 279q84 258 288 474q255 264 539 264zM752 960q-125 0 -254 -164q-107 -130 -148 -252q-19 -66 -19 -118q0 -76 45 -124
q53 -52 144 -52q129 0 232 106q83 88 118 204q45 136 19 270q-27 130 -137 130z" />
    <glyph glyph-name="afii10081" unicode="&#x43f;" horiz-adv-x="1119" 
d="M207 1275l982 119q-261 -805 -326 -1327l-391 -79l289 1127q-65 -8 -194 -30q-228 -861 -247 -1018l-390 -79z" />
    <glyph glyph-name="afii10082" unicode="&#x440;" horiz-adv-x="1059" 
d="M225.975 1275q353 85 581 85q307 0 303 -170q-7 -346 -725 -712q-49 -221 -72 -413l-364 -79q7 40 57 243l98 433q133 595 122 613zM513.975 984q-15 -53 -30 -104l-23 -99q209 85 273 176q8 17 8 25q0 30 -57 30q-53 0 -171 -28z" />
    <glyph glyph-name="afii10083" unicode="&#x441;" horiz-adv-x="1046" 
d="M747 1364q235 0 349 -206l-258 -228q-53 46 -121 46q-122 0 -251 -167q-106 -137 -140 -255q-16 -55 -16 -101q0 -124 114 -170q34 -12 76 -12q118 0 247 140l76 -219q-228 -200 -459 -200q-236 0 -346 200q-68 119 -68 261q0 107 34 225q68 243 262 443q228 243 501 243
z" />
    <glyph glyph-name="afii10084" unicode="&#x442;" horiz-adv-x="923" 
d="M945 1348l-15 -336q-159 -8 -303 -18q-148 -506 -202 -929l-387 -79l213 967q-61 -6 -125 -14l-118 -18l-30 340z" />
    <glyph glyph-name="afii10085" unicode="&#x443;" horiz-adv-x="1092" 
d="M580.054 726q42 133 125 592l418 66q-194 -734 -311 -1011q-99 -230 -251 -326t-304 -80q-113 6 -191 66.5t-91.5 170t5.5 148.5l296 -15q-11 -58 13.5 -76t62.5 -10.5t83.5 63.5t80.5 166q-118 -31 -235.5 -8t-180.5 86.5t-74 179.5q-30 97 49 552l406 64
q-22 -76 -57 -194q-79 -301 -49 -392t205 -42z" />
    <glyph glyph-name="afii10086" unicode="&#x444;" horiz-adv-x="1446" 
d="M913.928 998q-34 -192 -46 -237l-23 -94q156 57 215 105.5t74 88.5q61 155 -80 146q-49 6 -140 -9zM491.928 621l4 12q8 55 15 88q19 119 31 152l19 79q-190 -49 -239 -121q-12 -22 -27 -49q-61 -158 53 -176q57 -3 144 15zM636.928 1289l7 52l342 60l-12 -60
q91 12 228 0q307 -22 311 -258q-15 -441 -732 -674q-49 -137 -72 -325l-361 -85q8 39 53 273l27 103q-84 -9 -197 6q-258 52 -296 252q-38 474 702 656z" />
    <glyph glyph-name="afii10087" unicode="&#x445;" horiz-adv-x="1248" 
d="M998 114l-365 -183l-41 180q-19 88 -38 179l-110 -158q-57 -82 -107 -158l-398 27l516 650q-91 297 -186 531l323 195l125 -392l296 370l296 -85q-243 -276 -490 -610z" />
    <glyph glyph-name="afii10088" unicode="&#x446;" horiz-adv-x="1099" 
d="M223 1292l391 59q-159 -478 -273 -1031l209 35l208 937l387 59q-235 -747 -269 -966l197 26l-140 -443l-368 -73l49 193q-311 -49 -660 -116z" />
    <glyph glyph-name="afii10089" unicode="&#x447;" horiz-adv-x="1035" 
d="M56 1265l391 65q-19 -55 -45 -162q-95 -310 -95 -395q19 -131 216 -79l129 577l418 59q-239 -729 -312 -1267l-383 -79q46 245 99 474q-493 -91 -509 265q0 77 23 200z" />
    <glyph glyph-name="afii10090" unicode="&#x448;" horiz-adv-x="1632" 
d="M-83 -14l273 1287l422 59q-114 -348 -258 -1032l185 24l195 949l420 59q-203 -615 -258 -996l174 26l220 935l425 59q-258 -745 -318 -1249z" />
    <glyph glyph-name="afii10091" unicode="&#x449;" horiz-adv-x="1619" 
d="M-88 -19l273 1288l421 57q-113 -346 -254 -1026l186 18l190 951l421 57q-201 -616 -258 -986l182 21l213 932l421 61q-190 -550 -269 -966l220 21l-190 -488l-395 -31l76 189z" />
    <glyph glyph-name="afii10092" unicode="&#x44a;" horiz-adv-x="1003" 
d="M443 511q-19 -70 -38 -188q322 79 322 179q0 36 -79 36q-72 0 -205 -27zM82 532q65 283 99 486l-171 -30v297q288 25 641 76q-151 -558 -178 -686q95 36 292 49q236 12 270 -107q3 -42 3 -69q-3 -137 -166 -280q-126 -106 -312 -188q-220 -97 -504 -97h-91q11 48 22 103z
" />
    <glyph glyph-name="afii10093" unicode="&#x44b;" horiz-adv-x="1476" 
d="M400 510q-19 -70 -38 -188q323 79 323 179q0 36 -80 36q-72 0 -205 -27zM40 531q64 286 155 778l433 57q-171 -561 -197 -689q94 36 292 46q235 12 258 -113q11 -24 4 -70q-16 -136 -156 -270q-125 -109 -311 -191q-220 -97 -505 -97q-45 0 -91 3q11 48 23 103z
M1163 1272l391 61q-235 -732 -307 -1266l-365 -82z" />
    <glyph glyph-name="afii10094" unicode="&#x44c;" horiz-adv-x="973" 
d="M429.25 510q-19 -70 -38 -188q322 79 322 179q0 36 -79 36q-73 0 -205 -27zM64.25 531q69 286 160 778l432 57q-167 -543 -197 -689q95 36 292 46q235 12 270 -107q3 -42 0 -70q0 -136 -164 -276q-125 -109 -311 -191q-220 -97 -504 -97q-46 0 -92 3q12 48 23 103z" />
    <glyph glyph-name="afii10095" unicode="&#x44d;" horiz-adv-x="1115" 
d="M473.175 360q121 36 216 140l30 48q-167 -12 -292 -15l-27 249l376 27q12 55 10 88.5t-29 78.5q-34 46 -129 49q-155 0 -273 -88q-114 118 -235 258q144 112 322.5 157.5t371.5 18.5q205 -33 290.5 -191t36 -419t-269.5 -489q-133 -128 -292 -203q-216 -95 -410 -43
t-213 334l395 64q-7 -91 122 -64z" />
    <glyph glyph-name="afii10096" unicode="&#x44e;" horiz-adv-x="1592" 
d="M1227 960q-126 0 -255 -164q-106 -130 -144 -252q-23 -66 -23 -118q0 -76 46 -124q53 -52 148 -52q125 0 228 106q83 88 117 204q46 136 19 270q-26 130 -136 130zM434 465q-38 -9 -92 -18q-45 -221 -60 -382l-395 -79l277 1287l421 58q-113 -346 -186 -632l99 15
q84 234 273 435q255 264 539 264q239 0 342 -216q53 -112 53 -243q0 -127 -49 -279q-84 -255 -293 -468q-250 -264 -535 -264q-243 0 -345 216q-49 106 -49 237v69z" />
    <glyph glyph-name="afii10097" unicode="&#x44f;" horiz-adv-x="1185" 
d="M570 979q-65 -52 -68.5 -102t53.5 -90q64 -39 174 -39l72 276q-121 15 -231 -45zM680 466l-262 -334q-68 -82 -125 -155l-387 27l459 553q-270 76 -251 306q38 331 532 462q277 42 417 27l216 -9q-246 -753 -307 -1275l-395 -79z" />
    <glyph glyph-name="afii10071" unicode="&#x451;" horiz-adv-x="942" 
d="M536.5 886q-17 -48 -30 -94l-20 -89l323 57l-20 -224q-229 -32 -361 -56q-10 -33 -13 -65l-17 -62l377 43l-27 -302q-289 -18 -737 -110l242 1158l670 78l-23 -299q-199 -16 -364 -35zM442.5 1411q44 0 76 -18.5t32 -51.5q0 -56 -67.5 -100.5t-148.5 -44.5q-44 0 -77 19
q-34 19 -34 54q0 53 69 97.5t150 44.5zM819.5 1444q44 0 77.5 -19t33.5 -51q0 -52 -70.5 -96t-151.5 -44q-44 0 -74 18q-37 17 -37 52q0 51 70.5 95.5t151.5 44.5z" />
    <glyph glyph-name="afii10101" unicode="&#x454;" horiz-adv-x="808" 
d="M272 566q-4 -30 -4 -56q0 -134 98 -184q32 -16 68 -16q104 0 218 154l64 -238q-198 -220 -402 -220q-208 0 -304 220q-58 128 -58 286q0 116 30 246q60 266 228 486q202 266 440 266q208 0 306 -226l-226 -248q-46 48 -106 48q-106 0 -220 -182q-8 -12 -16 -26l232 26
l-12 -302q-180 -14 -336 -34z" />
    <glyph glyph-name="afii10103" unicode="&#x456;" horiz-adv-x="446" 
d="M204 1412l344 64q-208 -802 -272 -1390l-318 -88z" />
    <glyph glyph-name="afii10104" unicode="&#x457;" horiz-adv-x="446" 
d="M204 1412l344 64q-208 -802 -272 -1390l-318 -88zM292 1766q42 0 74 -23t32 -65q0 -68 -67 -123t-147 -55q-44 0 -74 22q-34 24 -34 66q0 66 68 122t148 56zM666 1806q44 0 76 -23t32 -63q0 -66 -69 -120t-149 -54q-44 0 -76 22q-34 22 -34 64q0 64 69 119t151 55z" />
    <glyph glyph-name="afii10108" unicode="&#x45b;" 
d="M338 1016q66 256 102 508l370 64q-166 -656 -236 -901t-208 -447q-222 -288 -470 -288q-214 0 -304 236q-44 116 -44 260q0 58 22 152q156 -136 312 -196q-12 -60 32 -104q58 -50 130 -2t127 131t121 261q-96 -68 -232 -68q-208 0 -304 220q-58 128 -58 286q0 116 30 246
q20 114 80 272l322 -118q-74 -160 -102 -290q-14 -62 -14 -112q0 -134 98 -184q32 -16 68 -16q102 0 158 90z" />
    <glyph glyph-name="afii10110" unicode="&#x45e;" horiz-adv-x="774" 
d="M678 1442l322 -56q-432 -758 -684 -1372l-308 20l212 446l-168 804l390 180q-6 -92 -8 -230t14 -276zM334 1740q286 22 498 64l16 -242l-524 -62z" />
    <glyph glyph-name="afii10050" unicode="&#x490;" horiz-adv-x="740" 
d="M806 1164q-208 -24 -380 -50q-14 -56 -24 -110q-128 -656 -156 -918l-342 -88l234 1434l374 52l24 84l370 28q-74 -242 -100 -432z" />
    <glyph glyph-name="afii10098" unicode="&#x491;" horiz-adv-x="740" 
d="M806 1164q-208 -24 -380 -50q-14 -56 -24 -110q-128 -656 -156 -918l-342 -88l234 1434l374 52l24 84l370 28q-74 -242 -100 -432z" />
    <glyph glyph-name="quoteleft" unicode="&#x2018;" horiz-adv-x="494" 
d="M648 1614q-128 -348 -178 -632l-386 -60l194 664z" />
    <glyph glyph-name="quoteright" unicode="&#x2019;" horiz-adv-x="494" 
d="M648 1614q-128 -348 -178 -632l-386 -60l194 664z" />
    <glyph glyph-name="quotedblleft" unicode="&#x201c;" 
d="M630 1614q-128 -348 -178 -632l-386 -60l194 664zM1142 1614q-128 -348 -178 -632l-386 -60l194 664z" />
    <glyph glyph-name="quotedblright" unicode="&#x201d;" 
d="M630 1614q-128 -348 -178 -632l-386 -60l194 664zM1142 1614q-128 -348 -178 -632l-386 -60l194 664z" />
    <glyph glyph-name="glyph170" horiz-adv-x="466" 
 />
    </font>
</defs>
</svg>
